<?xml version="1.0" encoding="UTF-8" standalone="no"?>
<!DOCTYPE svg PUBLIC "-//W3C//DTD SVG 1.1//EN" "http://www.w3.org/Graphics/SVG/1.1/DTD/svg11.dtd">
<svg width="100%" height="100%" viewBox="0 0 287 50" version="1.1" xmlns="http://www.w3.org/2000/svg" xmlns:xlink="http://www.w3.org/1999/xlink" xml:space="preserve" xmlns:serif="http://www.serif.com/" style="fill-rule:evenodd;clip-rule:evenodd;stroke-linejoin:round;stroke-miterlimit:2;">
    <g id="bars">
        <rect x="0" y="0" width="1" height="50"/>
        <rect x="4" y="0" width="1" height="50"/>
        <rect x="6" y="0" width="3" height="50"/>
        <rect x="10" y="0" width="3" height="50"/>
        <rect x="14" y="0" width="1" height="50"/>
        <rect x="16" y="0" width="1" height="50"/>
        <rect x="20" y="0" width="1" height="50"/>
        <rect x="22" y="0" width="3" height="50"/>
        <rect x="26" y="0" width="1" height="50"/>
        <rect x="28" y="0" width="3" height="50"/>
        <rect x="32" y="0" width="3" height="50"/>
        <rect x="36" y="0" width="1" height="50"/>
        <rect x="40" y="0" width="1" height="50"/>
        <rect x="42" y="0" width="1" height="50"/>
        <rect x="44" y="0" width="3" height="50"/>
        <rect x="48" y="0" width="1" height="50"/>
        <rect x="50" y="0" width="3" height="50"/>
        <rect x="56" y="0" width="1" height="50"/>
        <rect x="58" y="0" width="1" height="50"/>
        <rect x="60" y="0" width="3" height="50"/>
        <rect x="64" y="0" width="3" height="50"/>
        <rect x="68" y="0" width="3" height="50"/>
        <rect x="74" y="0" width="1" height="50"/>
        <rect x="76" y="0" width="1" height="50"/>
        <rect x="78" y="0" width="1" height="50"/>
        <rect x="80" y="0" width="3" height="50"/>
        <rect x="84" y="0" width="1" height="50"/>
        <rect x="88" y="0" width="3" height="50"/>
        <rect x="92" y="0" width="1" height="50"/>
        <rect x="94" y="0" width="1" height="50"/>
        <rect x="96" y="0" width="1" height="50"/>
        <rect x="98" y="0" width="3" height="50"/>
        <rect x="104" y="0" width="3" height="50"/>
        <rect x="108" y="0" width="1" height="50"/>
        <rect x="110" y="0" width="1" height="50"/>
        <rect x="112" y="0" width="1" height="50"/>
        <rect x="114" y="0" width="1" height="50"/>
        <rect x="118" y="0" width="1" height="50"/>
        <rect x="120" y="0" width="3" height="50"/>
        <rect x="124" y="0" width="3" height="50"/>
        <rect x="128" y="0" width="3" height="50"/>
        <rect x="132" y="0" width="1" height="50"/>
        <rect x="136" y="0" width="1" height="50"/>
        <rect x="138" y="0" width="3" height="50"/>
        <rect x="142" y="0" width="1" height="50"/>
        <rect x="144" y="0" width="1" height="50"/>
        <rect x="146" y="0" width="3" height="50"/>
        <rect x="152" y="0" width="1" height="50"/>
        <rect x="154" y="0" width="3" height="50"/>
        <rect x="158" y="0" width="1" height="50"/>
        <rect x="160" y="0" width="3" height="50"/>
        <rect x="164" y="0" width="1" height="50"/>
        <rect x="168" y="0" width="1" height="50"/>
        <rect x="170" y="0" width="1" height="50"/>
        <rect x="172" y="0" width="3" height="50"/>
        <rect x="176" y="0" width="1" height="50"/>
        <rect x="178" y="0" width="3" height="50"/>
        <rect x="184" y="0" width="1" height="50"/>
        <rect x="186" y="0" width="1" height="50"/>
        <rect x="188" y="0" width="3" height="50"/>
        <rect x="192" y="0" width="3" height="50"/>
        <rect x="196" y="0" width="3" height="50"/>
        <rect x="202" y="0" width="1" height="50"/>
        <rect x="204" y="0" width="1" height="50"/>
        <rect x="206" y="0" width="1" height="50"/>
        <rect x="208" y="0" width="1" height="50"/>
        <rect x="210" y="0" width="1" height="50"/>
        <rect x="214" y="0" width="3" height="50"/>
        <rect x="218" y="0" width="1" height="50"/>
        <rect x="220" y="0" width="3" height="50"/>
        <rect x="224" y="0" width="3" height="50"/>
        <rect x="228" y="0" width="1" height="50"/>
        <rect x="232" y="0" width="3" height="50"/>
        <rect x="236" y="0" width="1" height="50"/>
        <rect x="238" y="0" width="1" height="50"/>
        <rect x="240" y="0" width="1" height="50"/>
        <rect x="242" y="0" width="3" height="50"/>
        <rect x="248" y="0" width="3" height="50"/>
        <rect x="252" y="0" width="1" height="50"/>
        <rect x="254" y="0" width="1" height="50"/>
        <rect x="256" y="0" width="1" height="50"/>
        <rect x="258" y="0" width="1" height="50"/>
        <rect x="262" y="0" width="1" height="50"/>
        <rect x="264" y="0" width="3" height="50"/>
        <rect x="268" y="0" width="3" height="50"/>
        <rect x="272" y="0" width="1" height="50"/>
        <rect x="276" y="0" width="1" height="50"/>
        <rect x="278" y="0" width="3" height="50"/>
        <rect x="282" y="0" width="3" height="50"/>
        <rect x="286" y="0" width="1" height="50"/>
    </g>
</svg>
