<?xml version="1.0" encoding="UTF-8" standalone="no"?>
<!DOCTYPE svg PUBLIC "-//W3C//DTD SVG 1.1//EN" "http://www.w3.org/Graphics/SVG/1.1/DTD/svg11.dtd">
<svg width="100%" height="100%" viewBox="0 0 888 366" version="1.1" xmlns="http://www.w3.org/2000/svg" xmlns:xlink="http://www.w3.org/1999/xlink" xml:space="preserve" xmlns:serif="http://www.serif.com/" style="fill-rule:evenodd;clip-rule:evenodd;stroke-linejoin:round;stroke-miterlimit:2;">
    <g transform="matrix(1,0,0,1,0,-1)">
        <g transform="matrix(4.16667,0,0,4.16667,0,0)">
            <path d="M93.516,11.539L95.646,11.539L95.646,22.169C95.646,24.915 93.681,27.687 89.28,27.687C85.29,27.687 82.911,25.665 82.911,22.269L82.911,11.539L85.313,11.539L85.313,21.97C85.313,24.706 86.636,25.974 89.476,25.974C92.266,25.974 93.516,23.965 93.516,21.97L93.516,11.539Z" style="fill:white;fill-rule:nonzero;"/>
            <path d="M102.48,11.539L100.415,11.539L100.415,27.388L102.476,27.388L102.476,15.27L111.964,27.388L114.136,27.388L114.136,11.539L112.069,11.539L112.069,23.806L102.48,11.539Z" style="fill:white;fill-rule:nonzero;"/>
            <rect x="119.235" y="11.539" width="2.382" height="15.849" style="fill:white;fill-rule:nonzero;"/>
            <path d="M124.977,11.539L127.402,11.539L131.318,23.428L135.63,11.539L137.664,11.539L131.62,27.388L130.399,27.388L124.977,11.539Z" style="fill:white;fill-rule:nonzero;"/>
            <path d="M150.326,11.539L150.326,13.209L143.283,13.209L143.283,18.376L148.918,18.376L148.918,20.04L143.283,20.04L143.283,25.71L150.326,25.71L150.326,27.388L140.886,27.388L140.886,11.539L150.326,11.539Z" style="fill:white;fill-rule:nonzero;"/>
            <path d="M160.842,19.945L161.108,19.868C162.323,19.507 164.092,17.637 164.092,15.521C164.092,13.601 162.323,11.539 158.45,11.539L154.111,11.539L154.111,27.388L156.514,27.388L156.514,13.024L158.235,13.024C160.801,13.024 161.711,14.499 161.711,15.764C161.711,17.098 160.623,18.973 158.209,18.973L157.61,18.973L162.936,27.388L165.771,27.388L160.842,19.945Z" style="fill:white;fill-rule:nonzero;"/>
            <path d="M175.512,23.657C175.512,22.167 174.1,21.32 172.471,20.333L171.921,20.001C170.107,18.899 168.176,17.53 168.176,15.278C168.176,12.967 170.221,11.218 172.934,11.218C175.258,11.218 176.549,11.76 177.145,12.02C177.093,12.134 176.549,13.449 176.491,13.593C175.967,13.353 174.857,12.885 173.348,12.885C171.63,12.885 170.559,13.634 170.559,14.838C170.559,16.302 171.766,17.047 173.301,17.991L173.998,18.416C173.995,18.416 174.096,18.481 174.096,18.481C175.676,19.479 178.061,20.99 178.061,23.168C178.061,25.871 175.175,27.687 172.471,27.687C169.874,27.687 168.389,26.963 167.771,26.654C167.828,26.527 168.385,25.275 168.445,25.136C168.45,25.139 168.462,25.144 168.462,25.144C169.157,25.455 170.457,26.025 172.52,26.025C174.164,26.025 175.512,24.96 175.512,23.657Z" style="fill:white;fill-rule:nonzero;"/>
            <rect x="182.087" y="11.539" width="2.376" height="15.849" style="fill:white;fill-rule:nonzero;"/>
            <path d="M200.367,11.539L200.367,13.209L195.185,13.209L195.185,27.388L192.783,27.388L192.783,13.209L187.574,13.209L187.574,11.539L200.367,11.539Z" style="fill:white;fill-rule:nonzero;"/>
            <path d="M203.474,11.539L203.474,27.388L212.921,27.388L212.921,25.71L205.881,25.71L205.881,20.04L211.513,20.04L211.513,18.376L205.881,18.376L205.881,13.209L212.921,13.209L212.921,11.539L203.474,11.539Z" style="fill:white;fill-rule:nonzero;"/>
            <path d="M210.563,6.264L211.496,7.661L207.422,9.885L206.863,9.022L210.563,6.264Z" style="fill:white;fill-rule:nonzero;"/>
            <path d="M153.373,33.676L153.373,33.836C156.766,35.144 154.896,39.435 153.428,43.149L145.996,61.94L135.141,33.676L127.888,33.676L127.888,33.836C130.007,35.455 131.123,38.652 132.152,41.318L142.498,68.096L147.726,68.096L161.525,33.676L153.373,33.676Z" style="fill:white;fill-rule:nonzero;"/>
            <path d="M212.922,62.958C210.918,63.877 208.713,64.31 206.258,64.31L198.823,64.31L198.823,33.676L190.785,33.676L190.785,33.836C193.304,34.697 193.246,38.63 193.246,41.053L193.242,67.916C190.565,66.585 189.176,63.482 187.922,60.51L176.555,33.676L167.918,33.676L167.918,33.836C170.508,34.606 169.523,36.818 168.735,38.699L159.604,60.51C158.358,63.482 157.068,66.565 154.301,67.939L154.301,68.097L161.133,68.097L164.64,58.997L181.408,58.997L185.024,68.097L212.922,68.097L212.922,62.958ZM166.121,55.143L172.944,38.126L179.875,55.143L166.121,55.143Z" style="fill:white;fill-rule:nonzero;"/>
            <path d="M130.927,60.51L119.555,33.676L110.922,33.676L110.922,33.836C113.512,34.606 112.528,36.818 111.742,38.699L111.741,38.701L111.74,38.699L102.61,60.51C102.156,61.591 101.696,62.687 101.162,63.71C99.843,64.099 98.443,64.311 96.95,64.311L89.514,64.311L89.514,33.679L81.477,33.679L81.477,33.839C83.998,34.701 83.939,38.633 83.939,41.056L83.936,68.096L104.138,68.096L107.644,58.997L124.416,58.997L128.031,68.096L136.289,68.096L136.289,67.939C133.43,66.493 132.186,63.493 130.927,60.51ZM109.126,55.143L115.948,38.126L122.88,55.143L109.126,55.143Z" style="fill:white;fill-rule:nonzero;"/>
            <path d="M0,0.283L0,68.831C0,74.733 4.543,79.351 10.344,79.351L26.634,79.351C28.813,79.351 31.647,80.821 33.066,84.948L33.852,87.229C34.045,87.7 34.318,88 34.632,88C34.94,88 35.22,87.7 35.413,87.229L36.198,84.948C37.618,80.821 40.448,79.351 42.626,79.351L58.918,79.351C64.72,79.351 69.261,74.733 69.261,68.831L69.261,0.283L0,0.283Z" style="fill:white;fill-rule:nonzero;"/>
            <rect x="1.654" y="1.937" width="26.833" height="31.738" style="fill:rgb(237,28,36);fill-rule:nonzero;"/>
            <path d="M1.654,45.958L1.654,68.832C1.654,73.991 5.636,77.697 10.344,77.697L26.635,77.697C27.223,77.697 27.849,77.78 28.487,77.96L28.487,45.958L1.654,45.958Z" style="fill:rgb(237,28,36);fill-rule:nonzero;"/>
            <rect x="40.77" y="1.937" width="26.835" height="31.738" style="fill:rgb(237,28,36);fill-rule:nonzero;"/>
            <path d="M40.77,77.96C41.409,77.78 42.038,77.696 42.626,77.696L58.918,77.696C63.626,77.696 67.605,73.991 67.605,68.832L67.605,45.958L40.77,45.958L40.77,77.96Z" style="fill:rgb(237,28,36);fill-rule:nonzero;"/>
            <path d="M40.77,33.676L40.77,1.938L28.487,1.938L28.487,33.676L1.653,33.676L1.653,45.957L28.487,45.957L28.487,77.958C30.817,78.615 33.307,80.553 34.632,84.412C35.958,80.557 38.443,78.618 40.77,77.96L40.77,45.957L67.605,45.957L67.605,33.676L40.77,33.676Z" style="fill:rgb(255,203,3);fill-rule:nonzero;"/>
            <path d="M11.553,15.042C11.609,15.244 11.478,15.407 11.33,15.48C11.051,15.622 10.239,15.68 9.928,15.579C9.928,15.579 9.521,16.307 8.92,16.307C8.32,16.307 7.912,15.579 7.912,15.579C7.602,15.68 6.789,15.622 6.51,15.48C6.362,15.407 6.232,15.244 6.287,15.042C6.459,14.39 7.003,12.276 7.188,11.535L6.09,11.942C5.899,12.778 5.314,14.124 4.315,14.198C4.171,14.21 3.963,14.149 3.976,14.013C4.104,12.881 4.793,7.765 4.861,7.276C4.928,6.792 5.082,6.564 5.425,6.454C5.755,6.346 6.004,6.423 6.36,6.745C6.635,6.99 7.63,7.912 7.63,7.912C7.63,7.912 7.741,7.07 7.771,6.8L7.509,6.8C7.366,6.8 7.25,6.684 7.25,6.543L7.368,5.526C7.368,5.424 7.432,5.331 7.52,5.291C7.52,5.291 7.951,5.085 8.307,4.948C8.663,4.811 8.92,4.811 8.92,4.811C9.207,4.819 9.43,4.896 9.615,5.042C9.827,5.206 9.953,5.44 9.984,5.724L10.211,7.912C10.211,7.912 11.206,6.99 11.48,6.745C11.836,6.423 12.085,6.346 12.415,6.454C12.758,6.564 12.913,6.792 12.979,7.276C13.048,7.765 13.736,12.881 13.865,14.013C13.878,14.149 13.669,14.21 13.526,14.198C12.527,14.124 11.941,12.778 11.75,11.942L10.652,11.535C10.837,12.276 11.381,14.39 11.553,15.042Z" style="fill:rgb(35,31,32);fill-rule:nonzero;"/>
            <path d="M23.848,15.042C23.904,15.244 23.773,15.407 23.625,15.48C23.346,15.622 22.534,15.68 22.223,15.579C22.223,15.579 21.816,16.307 21.215,16.307C20.615,16.307 20.208,15.579 20.208,15.579C19.897,15.68 19.084,15.622 18.805,15.48C18.658,15.407 18.527,15.244 18.583,15.042C18.754,14.39 19.299,12.276 19.483,11.535L18.385,11.942C18.194,12.778 17.609,14.124 16.61,14.198C16.466,14.21 16.258,14.149 16.271,14.013C16.399,12.881 17.088,7.765 17.157,7.276C17.223,6.792 17.377,6.564 17.721,6.454C18.05,6.346 18.299,6.423 18.655,6.745C18.93,6.99 19.925,7.912 19.925,7.912C19.925,7.912 20.036,7.07 20.066,6.8L19.805,6.8C19.661,6.8 19.545,6.684 19.545,6.543L19.663,5.526C19.663,5.424 19.727,5.331 19.816,5.291C19.816,5.291 20.246,5.085 20.602,4.948C20.958,4.811 21.215,4.811 21.215,4.811C21.503,4.819 21.726,4.896 21.91,5.042C22.122,5.206 22.249,5.44 22.279,5.724L22.506,7.912C22.506,7.912 23.501,6.99 23.775,6.745C24.131,6.423 24.38,6.346 24.71,6.454C25.053,6.564 25.208,6.792 25.274,7.276C25.343,7.765 26.031,12.881 26.16,14.013C26.173,14.149 25.964,14.21 25.821,14.198C24.822,14.124 24.236,12.778 24.045,11.942L22.948,11.535C23.132,12.276 23.676,14.39 23.848,15.042Z" style="fill:rgb(35,31,32);fill-rule:nonzero;"/>
            <path d="M11.553,29.537C11.609,29.737 11.478,29.899 11.33,29.973C11.051,30.115 10.239,30.174 9.928,30.072C9.928,30.072 9.521,30.801 8.92,30.801C8.32,30.801 7.912,30.072 7.912,30.072C7.602,30.174 6.789,30.115 6.51,29.973C6.362,29.899 6.232,29.737 6.287,29.537C6.459,28.884 7.003,26.77 7.188,26.028L6.09,26.435C5.899,27.272 5.314,28.619 4.315,28.691C4.171,28.705 3.963,28.643 3.976,28.507C4.104,27.376 4.793,22.259 4.861,21.77C4.928,21.287 5.082,21.058 5.425,20.947C5.755,20.84 6.004,20.917 6.36,21.238C6.635,21.483 7.63,22.405 7.63,22.405C7.63,22.405 7.741,21.564 7.771,21.294L7.509,21.294C7.366,21.294 7.25,21.178 7.25,21.038L7.368,20.02C7.368,19.918 7.432,19.823 7.52,19.785C7.52,19.785 7.951,19.58 8.307,19.441C8.663,19.304 8.92,19.304 8.92,19.304C9.207,19.313 9.43,19.39 9.615,19.537C9.827,19.698 9.953,19.934 9.984,20.218L10.211,22.405C10.211,22.405 11.206,21.483 11.48,21.238C11.836,20.917 12.085,20.84 12.415,20.947C12.758,21.058 12.913,21.287 12.979,21.77C13.048,22.259 13.736,27.376 13.865,28.507C13.878,28.643 13.669,28.705 13.526,28.691C12.527,28.619 11.941,27.272 11.75,26.435L10.652,26.028C10.837,26.77 11.381,28.884 11.553,29.537Z" style="fill:rgb(35,31,32);fill-rule:nonzero;"/>
            <path d="M23.848,29.537C23.904,29.737 23.773,29.899 23.625,29.973C23.346,30.115 22.534,30.174 22.223,30.072C22.223,30.072 21.816,30.801 21.215,30.801C20.615,30.801 20.208,30.072 20.208,30.072C19.897,30.174 19.084,30.115 18.805,29.973C18.658,29.899 18.527,29.737 18.583,29.537C18.754,28.884 19.299,26.77 19.483,26.028L18.385,26.435C18.194,27.272 17.609,28.619 16.61,28.691C16.466,28.705 16.258,28.643 16.271,28.507C16.399,27.376 17.088,22.259 17.157,21.77C17.223,21.287 17.377,21.058 17.721,20.947C18.05,20.84 18.299,20.917 18.655,21.238C18.93,21.483 19.925,22.405 19.925,22.405C19.925,22.405 20.036,21.564 20.066,21.294L19.805,21.294C19.661,21.294 19.545,21.178 19.545,21.038L19.663,20.02C19.663,19.918 19.727,19.823 19.816,19.785C19.816,19.785 20.246,19.58 20.602,19.441C20.958,19.304 21.215,19.304 21.215,19.304C21.503,19.313 21.726,19.39 21.91,19.537C22.122,19.698 22.249,19.934 22.279,20.218L22.506,22.405C22.506,22.405 23.501,21.483 23.775,21.238C24.131,20.917 24.38,20.84 24.71,20.947C25.053,21.058 25.208,21.287 25.274,21.77C25.343,22.259 26.031,27.376 26.16,28.507C26.173,28.643 25.964,28.705 25.821,28.691C24.822,28.619 24.236,27.272 24.045,26.435L22.948,26.028C23.132,26.77 23.676,28.884 23.848,29.537Z" style="fill:rgb(35,31,32);fill-rule:nonzero;"/>
            <path d="M50.669,15.042C50.725,15.244 50.594,15.407 50.446,15.48C50.167,15.622 49.355,15.68 49.044,15.579C49.044,15.579 48.636,16.307 48.036,16.307C47.436,16.307 47.028,15.579 47.028,15.579C46.717,15.68 45.905,15.622 45.626,15.48C45.478,15.407 45.347,15.244 45.403,15.042C45.574,14.39 46.119,12.276 46.303,11.535L45.206,11.942C45.015,12.778 44.43,14.124 43.431,14.198C43.287,14.21 43.079,14.149 43.092,14.013C43.22,12.881 43.909,7.765 43.977,7.276C44.044,6.792 44.198,6.564 44.541,6.454C44.871,6.346 45.12,6.423 45.476,6.745C45.751,6.99 46.745,7.912 46.745,7.912C46.745,7.912 46.857,7.07 46.886,6.8L46.625,6.8C46.482,6.8 46.366,6.684 46.366,6.543L46.484,5.526C46.484,5.424 46.548,5.331 46.636,5.291C46.636,5.291 47.067,5.085 47.423,4.948C47.779,4.811 48.036,4.811 48.036,4.811C48.323,4.819 48.546,4.896 48.73,5.042C48.943,5.206 49.07,5.44 49.1,5.724L49.327,7.912C49.327,7.912 50.322,6.99 50.596,6.745C50.952,6.423 51.2,6.346 51.531,6.454C51.874,6.564 52.028,6.792 52.095,7.276C52.164,7.765 52.852,12.881 52.981,14.013C52.993,14.149 52.785,14.21 52.642,14.198C51.642,14.124 51.057,12.778 50.866,11.942L49.768,11.535C49.953,12.276 50.497,14.39 50.669,15.042Z" style="fill:rgb(35,31,32);fill-rule:nonzero;"/>
            <path d="M62.964,15.042C63.02,15.244 62.889,15.407 62.741,15.48C62.462,15.622 61.65,15.68 61.339,15.579C61.339,15.579 60.932,16.307 60.331,16.307C59.731,16.307 59.323,15.579 59.323,15.579C59.013,15.68 58.2,15.622 57.921,15.48C57.773,15.407 57.643,15.244 57.698,15.042C57.87,14.39 58.414,12.276 58.599,11.535L57.501,11.942C57.31,12.778 56.725,14.124 55.726,14.198C55.582,14.21 55.374,14.149 55.387,14.013C55.515,12.881 56.204,7.765 56.272,7.276C56.339,6.792 56.493,6.564 56.836,6.454C57.166,6.346 57.415,6.423 57.771,6.745C58.046,6.99 59.041,7.912 59.041,7.912C59.041,7.912 59.152,7.07 59.182,6.8L58.92,6.8C58.777,6.8 58.661,6.684 58.661,6.543L58.779,5.526C58.779,5.424 58.843,5.331 58.931,5.291C58.931,5.291 59.362,5.085 59.718,4.948C60.074,4.811 60.331,4.811 60.331,4.811C60.618,4.819 60.841,4.896 61.026,5.042C61.238,5.206 61.364,5.44 61.395,5.724L61.622,7.912C61.622,7.912 62.617,6.99 62.891,6.745C63.247,6.423 63.496,6.346 63.826,6.454C64.169,6.564 64.324,6.792 64.39,7.276C64.459,7.765 65.147,12.881 65.276,14.013C65.289,14.149 65.08,14.21 64.937,14.198C63.938,14.124 63.352,12.778 63.161,11.942L62.063,11.535C62.248,12.276 62.792,14.39 62.964,15.042Z" style="fill:rgb(35,31,32);fill-rule:nonzero;"/>
            <path d="M50.669,29.537C50.725,29.737 50.594,29.899 50.446,29.973C50.167,30.115 49.355,30.174 49.044,30.072C49.044,30.072 48.636,30.801 48.036,30.801C47.436,30.801 47.028,30.072 47.028,30.072C46.717,30.174 45.905,30.115 45.626,29.973C45.478,29.899 45.347,29.737 45.403,29.537C45.574,28.884 46.119,26.77 46.303,26.028L45.206,26.435C45.015,27.272 44.43,28.619 43.431,28.691C43.287,28.705 43.079,28.643 43.092,28.507C43.22,27.376 43.909,22.259 43.977,21.77C44.044,21.287 44.198,21.058 44.541,20.947C44.871,20.84 45.12,20.917 45.476,21.238C45.751,21.483 46.745,22.405 46.745,22.405C46.745,22.405 46.857,21.564 46.886,21.294L46.625,21.294C46.482,21.294 46.366,21.178 46.366,21.038L46.484,20.02C46.484,19.918 46.548,19.823 46.636,19.785C46.636,19.785 47.067,19.58 47.423,19.441C47.779,19.304 48.036,19.304 48.036,19.304C48.323,19.313 48.546,19.39 48.73,19.537C48.943,19.698 49.07,19.934 49.1,20.218L49.327,22.405C49.327,22.405 50.322,21.483 50.596,21.238C50.952,20.917 51.2,20.84 51.531,20.947C51.874,21.058 52.028,21.287 52.095,21.77C52.164,22.259 52.852,27.376 52.981,28.507C52.993,28.643 52.785,28.705 52.642,28.691C51.642,28.619 51.057,27.272 50.866,26.435L49.768,26.028C49.953,26.77 50.497,28.884 50.669,29.537Z" style="fill:rgb(35,31,32);fill-rule:nonzero;"/>
            <path d="M62.964,29.537C63.02,29.737 62.889,29.899 62.741,29.973C62.462,30.115 61.65,30.174 61.339,30.072C61.339,30.072 60.932,30.801 60.331,30.801C59.731,30.801 59.323,30.072 59.323,30.072C59.013,30.174 58.2,30.115 57.921,29.973C57.773,29.899 57.643,29.737 57.698,29.537C57.87,28.884 58.414,26.77 58.599,26.028L57.501,26.435C57.31,27.272 56.725,28.619 55.726,28.691C55.582,28.705 55.374,28.643 55.387,28.507C55.515,27.376 56.204,22.259 56.272,21.77C56.339,21.287 56.493,21.058 56.836,20.947C57.166,20.84 57.415,20.917 57.771,21.238C58.046,21.483 59.041,22.405 59.041,22.405C59.041,22.405 59.152,21.564 59.182,21.294L58.92,21.294C58.777,21.294 58.661,21.178 58.661,21.038L58.779,20.02C58.779,19.918 58.843,19.823 58.931,19.785C58.931,19.785 59.362,19.58 59.718,19.441C60.074,19.304 60.331,19.304 60.331,19.304C60.618,19.313 60.841,19.39 61.026,19.537C61.238,19.698 61.364,19.934 61.395,20.218L61.622,22.405C61.622,22.405 62.617,21.483 62.891,21.238C63.247,20.917 63.496,20.84 63.826,20.947C64.169,21.058 64.324,21.287 64.39,21.77C64.459,22.259 65.147,27.376 65.276,28.507C65.289,28.643 65.08,28.705 64.937,28.691C63.938,28.619 63.352,27.272 63.161,26.435L62.063,26.028C62.248,26.77 62.792,28.884 62.964,29.537Z" style="fill:rgb(35,31,32);fill-rule:nonzero;"/>
            <path d="M11.553,59.062C11.609,59.263 11.478,59.426 11.33,59.5C11.051,59.641 10.239,59.701 9.928,59.598C9.928,59.598 9.521,60.328 8.92,60.328C8.32,60.328 7.912,59.598 7.912,59.598C7.602,59.701 6.789,59.641 6.51,59.5C6.362,59.426 6.232,59.263 6.287,59.062C6.459,58.411 7.003,56.296 7.188,55.554L6.09,55.961C5.899,56.797 5.314,58.144 4.315,58.217C4.171,58.231 3.963,58.169 3.976,58.034C4.104,56.902 4.793,51.785 4.861,51.296C4.928,50.811 5.082,50.585 5.425,50.473C5.755,50.367 6.004,50.444 6.36,50.764C6.635,51.009 7.63,51.931 7.63,51.931C7.63,51.931 7.741,51.09 7.771,50.821L7.509,50.821C7.366,50.821 7.25,50.705 7.25,50.564L7.368,49.546C7.368,49.445 7.432,49.349 7.52,49.31C7.52,49.31 7.951,49.106 8.307,48.967C8.663,48.831 8.92,48.831 8.92,48.831C9.207,48.839 9.43,48.917 9.615,49.062C9.827,49.225 9.953,49.46 9.984,49.745L10.211,51.931C10.211,51.931 11.206,51.009 11.48,50.764C11.836,50.444 12.085,50.367 12.415,50.473C12.758,50.585 12.913,50.811 12.979,51.296C13.048,51.785 13.736,56.902 13.865,58.034C13.878,58.169 13.669,58.231 13.526,58.217C12.527,58.144 11.941,56.797 11.75,55.961L10.652,55.554C10.837,56.296 11.381,58.411 11.553,59.062Z" style="fill:rgb(35,31,32);fill-rule:nonzero;"/>
            <path d="M23.848,59.062C23.904,59.263 23.773,59.426 23.625,59.5C23.346,59.641 22.534,59.701 22.223,59.598C22.223,59.598 21.816,60.328 21.215,60.328C20.615,60.328 20.208,59.598 20.208,59.598C19.897,59.701 19.084,59.641 18.805,59.5C18.658,59.426 18.527,59.263 18.583,59.062C18.754,58.411 19.299,56.296 19.483,55.554L18.385,55.961C18.194,56.797 17.609,58.144 16.61,58.217C16.466,58.231 16.258,58.169 16.271,58.034C16.399,56.902 17.088,51.785 17.157,51.296C17.223,50.811 17.377,50.585 17.721,50.473C18.05,50.367 18.299,50.444 18.655,50.764C18.93,51.009 19.925,51.931 19.925,51.931C19.925,51.931 20.036,51.09 20.066,50.821L19.805,50.821C19.661,50.821 19.545,50.705 19.545,50.564L19.663,49.546C19.663,49.445 19.727,49.349 19.816,49.31C19.816,49.31 20.246,49.106 20.602,48.967C20.958,48.831 21.215,48.831 21.215,48.831C21.503,48.839 21.726,48.917 21.91,49.062C22.122,49.225 22.249,49.46 22.279,49.745L22.506,51.931C22.506,51.931 23.501,51.009 23.775,50.764C24.131,50.444 24.38,50.367 24.71,50.473C25.053,50.585 25.208,50.811 25.274,51.296C25.343,51.785 26.031,56.902 26.16,58.034C26.173,58.169 25.964,58.231 25.821,58.217C24.822,58.144 24.236,56.797 24.045,55.961L22.948,55.554C23.132,56.296 23.676,58.411 23.848,59.062Z" style="fill:rgb(35,31,32);fill-rule:nonzero;"/>
            <path d="M11.553,73.556C11.609,73.757 11.478,73.919 11.33,73.994C11.051,74.135 10.239,74.194 9.928,74.092C9.928,74.092 9.521,74.821 8.92,74.821C8.32,74.821 7.912,74.092 7.912,74.092C7.602,74.194 6.789,74.135 6.51,73.994C6.362,73.919 6.232,73.757 6.287,73.556C6.459,72.904 7.003,70.79 7.188,70.048L6.09,70.456C5.899,71.293 5.314,72.638 4.315,72.711C4.171,72.724 3.963,72.664 3.976,72.527C4.104,71.395 4.793,66.278 4.861,65.79C4.928,65.305 5.082,65.079 5.425,64.967C5.755,64.86 6.004,64.937 6.36,65.258C6.635,65.503 7.63,66.425 7.63,66.425C7.63,66.425 7.741,65.585 7.771,65.314L7.509,65.314C7.366,65.314 7.25,65.198 7.25,65.057L7.368,64.041C7.368,63.938 7.432,63.843 7.52,63.804C7.52,63.804 7.951,63.599 8.307,63.461C8.663,63.324 8.92,63.324 8.92,63.324C9.207,63.334 9.43,63.411 9.615,63.556C9.827,63.719 9.953,63.955 9.984,64.238L10.211,66.425C10.211,66.425 11.206,65.503 11.48,65.258C11.836,64.937 12.085,64.86 12.415,64.967C12.758,65.079 12.913,65.305 12.979,65.79C13.048,66.278 13.736,71.395 13.865,72.527C13.878,72.664 13.669,72.724 13.526,72.711C12.527,72.638 11.941,71.293 11.75,70.456L10.652,70.048C10.837,70.79 11.381,72.904 11.553,73.556Z" style="fill:rgb(35,31,32);fill-rule:nonzero;"/>
            <path d="M23.848,73.556C23.904,73.757 23.773,73.919 23.625,73.994C23.346,74.135 22.534,74.194 22.223,74.092C22.223,74.092 21.816,74.821 21.215,74.821C20.615,74.821 20.208,74.092 20.208,74.092C19.897,74.194 19.084,74.135 18.805,73.994C18.658,73.919 18.527,73.757 18.583,73.556C18.754,72.904 19.299,70.79 19.483,70.048L18.385,70.456C18.194,71.293 17.609,72.638 16.61,72.711C16.466,72.724 16.258,72.664 16.271,72.527C16.399,71.395 17.088,66.278 17.157,65.79C17.223,65.305 17.377,65.079 17.721,64.967C18.05,64.86 18.299,64.937 18.655,65.258C18.93,65.503 19.925,66.425 19.925,66.425C19.925,66.425 20.036,65.585 20.066,65.314L19.805,65.314C19.661,65.314 19.545,65.198 19.545,65.057L19.663,64.041C19.663,63.938 19.727,63.843 19.816,63.804C19.816,63.804 20.246,63.599 20.602,63.461C20.958,63.324 21.215,63.324 21.215,63.324C21.503,63.334 21.726,63.411 21.91,63.556C22.122,63.719 22.249,63.955 22.279,64.238L22.506,66.425C22.506,66.425 23.501,65.503 23.775,65.258C24.131,64.937 24.38,64.86 24.71,64.967C25.053,65.079 25.208,65.305 25.274,65.79C25.343,66.278 26.031,71.395 26.16,72.527C26.173,72.664 25.964,72.724 25.821,72.711C24.822,72.638 24.236,71.293 24.045,70.456L22.948,70.048C23.132,70.79 23.676,72.904 23.848,73.556Z" style="fill:rgb(35,31,32);fill-rule:nonzero;"/>
            <path d="M50.669,59.062C50.725,59.263 50.594,59.426 50.446,59.5C50.167,59.641 49.355,59.701 49.044,59.598C49.044,59.598 48.636,60.328 48.036,60.328C47.436,60.328 47.028,59.598 47.028,59.598C46.717,59.701 45.905,59.641 45.626,59.5C45.478,59.426 45.347,59.263 45.403,59.062C45.574,58.411 46.119,56.296 46.303,55.554L45.206,55.961C45.015,56.797 44.43,58.144 43.431,58.217C43.287,58.231 43.079,58.169 43.092,58.034C43.22,56.902 43.909,51.785 43.977,51.296C44.044,50.811 44.198,50.585 44.541,50.473C44.871,50.367 45.12,50.444 45.476,50.764C45.751,51.009 46.745,51.931 46.745,51.931C46.745,51.931 46.857,51.09 46.886,50.821L46.625,50.821C46.482,50.821 46.366,50.705 46.366,50.564L46.484,49.546C46.484,49.445 46.548,49.349 46.636,49.31C46.636,49.31 47.067,49.106 47.423,48.967C47.779,48.831 48.036,48.831 48.036,48.831C48.323,48.839 48.546,48.917 48.73,49.062C48.943,49.225 49.07,49.46 49.1,49.745L49.327,51.931C49.327,51.931 50.322,51.009 50.596,50.764C50.952,50.444 51.2,50.367 51.531,50.473C51.874,50.585 52.028,50.811 52.095,51.296C52.164,51.785 52.852,56.902 52.981,58.034C52.993,58.169 52.785,58.231 52.642,58.217C51.642,58.144 51.057,56.797 50.866,55.961L49.768,55.554C49.953,56.296 50.497,58.411 50.669,59.062Z" style="fill:rgb(35,31,32);fill-rule:nonzero;"/>
            <path d="M62.964,59.062C63.02,59.263 62.889,59.426 62.741,59.5C62.462,59.641 61.65,59.701 61.339,59.598C61.339,59.598 60.932,60.328 60.331,60.328C59.731,60.328 59.323,59.598 59.323,59.598C59.013,59.701 58.2,59.641 57.921,59.5C57.773,59.426 57.643,59.263 57.698,59.062C57.87,58.411 58.414,56.296 58.599,55.554L57.501,55.961C57.31,56.797 56.725,58.144 55.726,58.217C55.582,58.231 55.374,58.169 55.387,58.034C55.515,56.902 56.204,51.785 56.272,51.296C56.339,50.811 56.493,50.585 56.836,50.473C57.166,50.367 57.415,50.444 57.771,50.764C58.046,51.009 59.041,51.931 59.041,51.931C59.041,51.931 59.152,51.09 59.182,50.821L58.92,50.821C58.777,50.821 58.661,50.705 58.661,50.564L58.779,49.546C58.779,49.445 58.843,49.349 58.931,49.31C58.931,49.31 59.362,49.106 59.718,48.967C60.074,48.831 60.331,48.831 60.331,48.831C60.618,48.839 60.841,48.917 61.026,49.062C61.238,49.225 61.364,49.46 61.395,49.745L61.622,51.931C61.622,51.931 62.617,51.009 62.891,50.764C63.247,50.444 63.496,50.367 63.826,50.473C64.169,50.585 64.324,50.811 64.39,51.296C64.459,51.785 65.147,56.902 65.276,58.034C65.289,58.169 65.08,58.231 64.937,58.217C63.938,58.144 63.352,56.797 63.161,55.961L62.063,55.554C62.248,56.296 62.792,58.411 62.964,59.062Z" style="fill:rgb(35,31,32);fill-rule:nonzero;"/>
            <path d="M50.669,73.556C50.725,73.757 50.594,73.919 50.446,73.994C50.167,74.135 49.355,74.194 49.044,74.092C49.044,74.092 48.636,74.821 48.036,74.821C47.436,74.821 47.028,74.092 47.028,74.092C46.717,74.194 45.905,74.135 45.626,73.994C45.478,73.919 45.347,73.757 45.403,73.556C45.574,72.904 46.119,70.79 46.303,70.048L45.206,70.456C45.015,71.293 44.43,72.638 43.431,72.711C43.287,72.724 43.079,72.664 43.092,72.527C43.22,71.395 43.909,66.278 43.977,65.79C44.044,65.305 44.198,65.079 44.541,64.967C44.871,64.86 45.12,64.937 45.476,65.258C45.751,65.503 46.745,66.425 46.745,66.425C46.745,66.425 46.857,65.585 46.886,65.314L46.625,65.314C46.482,65.314 46.366,65.198 46.366,65.057L46.484,64.041C46.484,63.938 46.548,63.843 46.636,63.804C46.636,63.804 47.067,63.599 47.423,63.461C47.779,63.324 48.036,63.324 48.036,63.324C48.323,63.334 48.546,63.411 48.73,63.556C48.943,63.719 49.07,63.955 49.1,64.238L49.327,66.425C49.327,66.425 50.322,65.503 50.596,65.258C50.952,64.937 51.2,64.86 51.531,64.967C51.874,65.079 52.028,65.305 52.095,65.79C52.164,66.278 52.852,71.395 52.981,72.527C52.993,72.664 52.785,72.724 52.642,72.711C51.642,72.638 51.057,71.293 50.866,70.456L49.768,70.048C49.953,70.79 50.497,72.904 50.669,73.556Z" style="fill:rgb(35,31,32);fill-rule:nonzero;"/>
            <path d="M62.964,73.556C63.02,73.757 62.889,73.919 62.741,73.994C62.462,74.135 61.65,74.194 61.339,74.092C61.339,74.092 60.932,74.821 60.331,74.821C59.731,74.821 59.323,74.092 59.323,74.092C59.013,74.194 58.2,74.135 57.921,73.994C57.773,73.919 57.643,73.757 57.698,73.556C57.87,72.904 58.414,70.79 58.599,70.048L57.501,70.456C57.31,71.293 56.725,72.638 55.726,72.711C55.582,72.724 55.374,72.664 55.387,72.527C55.515,71.395 56.204,66.278 56.272,65.79C56.339,65.305 56.493,65.079 56.836,64.967C57.166,64.86 57.415,64.937 57.771,65.258C58.046,65.503 59.041,66.425 59.041,66.425C59.041,66.425 59.152,65.585 59.182,65.314L58.92,65.314C58.777,65.314 58.661,65.198 58.661,65.057L58.779,64.041C58.779,63.938 58.843,63.843 58.931,63.804C58.931,63.804 59.362,63.599 59.718,63.461C60.074,63.324 60.331,63.324 60.331,63.324C60.618,63.334 60.841,63.411 61.026,63.556C61.238,63.719 61.364,63.955 61.395,64.238L61.622,66.425C61.622,66.425 62.617,65.503 62.891,65.258C63.247,64.937 63.496,64.86 63.826,64.967C64.169,65.079 64.324,65.305 64.39,65.79C64.459,66.278 65.147,71.395 65.276,72.527C65.289,72.664 65.08,72.724 64.937,72.711C63.938,72.638 63.352,71.293 63.161,70.456L62.063,70.048C62.248,70.79 62.792,72.904 62.964,73.556Z" style="fill:rgb(35,31,32);fill-rule:nonzero;"/>
            <path d="M34.63,22.33C35.159,22.33 35.617,22.052 35.882,21.637C36.09,21.746 36.323,21.806 36.571,21.806C37.342,21.806 37.974,21.22 38.052,20.47C38.857,20.455 39.512,19.791 39.512,18.981C39.512,18.613 39.373,18.273 39.148,18.011C38.789,17.58 37.488,16.014 37.467,15.99L37.467,15.149C37.467,14.75 37.148,14.424 36.749,14.424L36.008,14.424C35.925,14.344 35.336,13.759 35.332,13.749C35.147,13.559 34.899,13.456 34.63,13.456C34.362,13.456 34.114,13.559 33.928,13.749C33.924,13.759 33.335,14.344 33.253,14.424L32.511,14.424C32.113,14.424 31.793,14.75 31.793,15.149L31.793,15.99C31.772,16.014 30.471,17.58 30.112,18.011C29.887,18.273 29.749,18.613 29.749,18.981C29.749,19.791 30.403,20.455 31.209,20.47C31.287,21.22 31.919,21.806 32.689,21.806C32.937,21.806 33.17,21.746 33.379,21.637C33.643,22.052 34.101,22.33 34.63,22.33Z" style="fill:rgb(35,31,32);fill-rule:nonzero;"/>
            <path d="M34.63,44.339C35.159,44.339 35.617,44.063 35.882,43.648C36.09,43.755 36.323,43.818 36.571,43.818C37.342,43.818 37.974,43.231 38.052,42.482C38.857,42.464 39.512,41.801 39.512,40.993C39.512,40.623 39.373,40.285 39.148,40.022C38.789,39.589 37.488,38.025 37.467,38L37.467,37.16C37.467,36.76 37.148,36.435 36.749,36.435L36.008,36.435C35.925,36.355 35.336,35.77 35.332,35.759C35.147,35.57 34.899,35.466 34.63,35.466C34.362,35.466 34.114,35.57 33.928,35.759C33.924,35.77 33.335,36.355 33.253,36.435L32.511,36.435C32.113,36.435 31.793,36.76 31.793,37.16L31.793,38C31.772,38.025 30.471,39.589 30.112,40.022C29.887,40.285 29.749,40.623 29.749,40.993C29.749,41.801 30.403,42.464 31.209,42.482C31.287,43.231 31.919,43.818 32.689,43.818C32.937,43.818 33.17,43.755 33.379,43.648C33.643,44.063 34.101,44.339 34.63,44.339Z" style="fill:rgb(35,31,32);fill-rule:nonzero;"/>
            <path d="M15.07,44.339C15.6,44.339 16.058,44.063 16.321,43.648C16.53,43.755 16.765,43.818 17.012,43.818C17.783,43.818 18.414,43.231 18.493,42.482C19.297,42.464 19.953,41.801 19.953,40.993C19.953,40.623 19.814,40.285 19.588,40.022C19.23,39.589 17.929,38.025 17.908,38L17.908,37.16C17.908,36.76 17.587,36.435 17.189,36.435L16.448,36.435C16.366,36.355 15.777,35.77 15.772,35.759C15.586,35.57 15.338,35.466 15.07,35.466C14.803,35.466 14.555,35.57 14.369,35.759C14.365,35.77 13.775,36.355 13.693,36.435L12.953,36.435C12.554,36.435 12.233,36.76 12.233,37.16L12.233,38C12.212,38.025 10.912,39.589 10.553,40.022C10.328,40.285 10.189,40.623 10.189,40.993C10.189,41.801 10.844,42.464 11.648,42.482C11.728,43.231 12.359,43.818 13.129,43.818C13.377,43.818 13.61,43.755 13.819,43.648C14.084,44.063 14.543,44.339 15.07,44.339Z" style="fill:rgb(35,31,32);fill-rule:nonzero;"/>
            <path d="M54.186,44.339C54.715,44.339 55.173,44.063 55.437,43.648C55.646,43.755 55.879,43.818 56.127,43.818C56.898,43.818 57.53,43.231 57.608,42.482C58.413,42.464 59.067,41.801 59.067,40.993C59.067,40.623 58.929,40.285 58.704,40.022C58.345,39.589 57.044,38.025 57.023,38L57.023,37.16C57.023,36.76 56.703,36.435 56.305,36.435L55.564,36.435C55.481,36.355 54.892,35.77 54.888,35.759C54.702,35.57 54.455,35.466 54.186,35.466C53.918,35.466 53.67,35.57 53.484,35.759C53.48,35.77 52.891,36.355 52.809,36.435L52.067,36.435C51.669,36.435 51.349,36.76 51.349,37.16L51.349,38C51.328,38.025 50.027,39.589 49.668,40.022C49.443,40.285 49.304,40.623 49.304,40.993C49.304,41.801 49.959,42.464 50.764,42.482C50.843,43.231 51.474,43.818 52.245,43.818C52.493,43.818 52.726,43.755 52.935,43.648C53.199,44.063 53.657,44.339 54.186,44.339Z" style="fill:rgb(35,31,32);fill-rule:nonzero;"/>
            <path d="M34.63,66.349C35.159,66.349 35.617,66.073 35.882,65.657C36.09,65.765 36.323,65.827 36.571,65.827C37.342,65.827 37.974,65.24 38.052,64.491C38.857,64.474 39.512,63.811 39.512,63.002C39.512,62.632 39.373,62.293 39.148,62.031C38.789,61.6 37.488,60.035 37.467,60.009L37.467,59.169C37.467,58.77 37.148,58.444 36.749,58.444L36.008,58.444C35.925,58.363 35.336,57.779 35.332,57.769C35.147,57.58 34.899,57.476 34.63,57.476C34.362,57.476 34.114,57.58 33.928,57.769C33.924,57.779 33.335,58.363 33.253,58.444L32.511,58.444C32.113,58.444 31.793,58.77 31.793,59.169L31.793,60.009C31.772,60.035 30.471,61.6 30.112,62.031C29.887,62.293 29.749,62.632 29.749,63.002C29.749,63.811 30.403,64.474 31.209,64.491C31.287,65.24 31.919,65.827 32.689,65.827C32.937,65.827 33.17,65.765 33.379,65.657C33.643,66.073 34.101,66.349 34.63,66.349Z" style="fill:rgb(35,31,32);fill-rule:nonzero;"/>
            <path d="M34.63,21.84C34.977,21.819 35.277,21.629 35.439,21.342L35.153,18.641C35.146,18.539 35.22,18.445 35.324,18.429C35.431,18.414 35.53,18.486 35.549,18.591L36.026,21.187C36.173,21.27 36.342,21.319 36.524,21.319C37.048,21.319 37.476,20.915 37.519,20.398L36.414,17.83C36.37,17.728 36.416,17.611 36.517,17.566C36.614,17.524 36.727,17.565 36.775,17.66L37.969,19.983C37.974,19.983 37.969,19.983 37.969,19.983C38.525,19.983 38.975,19.536 38.975,18.981C38.975,18.771 38.956,18.591 38.849,18.445L36.951,16.171L36.951,15.145C36.951,15.032 36.871,14.934 36.749,14.934L35.795,14.934L34.969,14.106C34.882,14.02 34.756,13.968 34.63,13.968C34.504,13.968 34.378,14.02 34.292,14.106L33.465,14.934L32.511,14.934C32.39,14.934 32.309,15.032 32.309,15.145L32.309,16.171L30.411,18.445C30.304,18.591 30.285,18.771 30.285,18.981C30.285,19.536 30.735,19.983 31.291,19.983C31.291,19.983 31.287,19.983 31.291,19.983L32.485,17.66C32.533,17.565 32.646,17.524 32.744,17.566C32.845,17.611 32.891,17.728 32.847,17.83L31.741,20.398C31.784,20.915 32.212,21.319 32.736,21.319C32.918,21.319 33.088,21.27 33.234,21.187L33.711,18.591C33.73,18.486 33.829,18.414 33.937,18.429C34.04,18.445 34.114,18.539 34.107,18.641L33.821,21.342C33.984,21.629 34.283,21.819 34.63,21.84Z" style="fill:rgb(0,174,239);fill-rule:nonzero;"/>
            <path d="M34.63,43.85C34.977,43.83 35.277,43.639 35.439,43.352L35.153,40.652C35.146,40.548 35.22,40.456 35.324,40.439C35.431,40.424 35.53,40.497 35.549,40.601L36.026,43.198C36.173,43.281 36.342,43.33 36.524,43.33C37.048,43.33 37.476,42.925 37.519,42.409L36.414,39.84C36.37,39.739 36.416,39.622 36.517,39.578C36.614,39.535 36.727,39.576 36.775,39.669L37.969,41.994C37.974,41.994 37.969,41.994 37.969,41.994C38.525,41.994 38.975,41.545 38.975,40.993C38.975,40.782 38.956,40.602 38.849,40.456L36.951,38.181L36.951,37.156C36.951,37.042 36.871,36.945 36.749,36.945L35.795,36.945L34.969,36.117C34.882,36.031 34.756,35.978 34.63,35.978C34.504,35.978 34.378,36.031 34.292,36.117L33.465,36.945L32.511,36.945C32.39,36.945 32.309,37.042 32.309,37.156L32.309,38.181L30.411,40.456C30.304,40.602 30.285,40.782 30.285,40.993C30.285,41.545 30.735,41.994 31.291,41.994C31.291,41.994 31.287,41.994 31.291,41.994L32.485,39.669C32.533,39.576 32.646,39.535 32.744,39.578C32.845,39.622 32.891,39.739 32.847,39.84L31.741,42.409C31.784,42.925 32.212,43.33 32.736,43.33C32.918,43.33 33.088,43.281 33.234,43.198L33.711,40.601C33.73,40.497 33.829,40.424 33.937,40.439C34.04,40.456 34.114,40.548 34.107,40.652L33.821,43.352C33.984,43.639 34.283,43.83 34.63,43.85Z" style="fill:rgb(0,174,239);fill-rule:nonzero;"/>
            <path d="M15.07,43.85C15.418,43.83 15.716,43.639 15.88,43.352L15.595,40.652C15.586,40.548 15.661,40.456 15.765,40.439C15.872,40.424 15.971,40.497 15.99,40.601L16.466,43.198C16.613,43.281 16.783,43.33 16.964,43.33C17.488,43.33 17.917,42.925 17.96,42.409L16.854,39.84C16.81,39.739 16.856,39.622 16.958,39.578C17.055,39.535 17.168,39.576 17.215,39.669L18.41,41.994C18.414,41.994 18.41,41.994 18.41,41.994C18.965,41.994 19.416,41.545 19.416,40.993C19.416,40.782 19.397,40.602 19.29,40.456L17.392,38.181L17.392,37.156C17.392,37.042 17.311,36.945 17.189,36.945L16.235,36.945L15.41,36.117C15.323,36.031 15.196,35.978 15.07,35.978C14.944,35.978 14.818,36.031 14.731,36.117L13.905,36.945L12.953,36.945C12.831,36.945 12.75,37.042 12.75,37.156L12.75,38.181L10.852,40.456C10.745,40.602 10.726,40.782 10.726,40.993C10.726,41.545 11.175,41.994 11.731,41.994C11.731,41.994 11.728,41.994 11.731,41.994L12.925,39.669C12.974,39.576 13.086,39.535 13.184,39.578C13.286,39.622 13.332,39.739 13.288,39.84L12.182,42.409C12.226,42.925 12.652,43.33 13.178,43.33C13.358,43.33 13.528,43.281 13.674,43.198L14.151,40.601C14.17,40.497 14.271,40.424 14.377,40.439C14.481,40.456 14.555,40.548 14.547,40.652L14.262,43.352C14.424,43.639 14.724,43.83 15.07,43.85Z" style="fill:rgb(0,174,239);fill-rule:nonzero;"/>
            <path d="M54.186,43.85C54.533,43.83 54.833,43.639 54.995,43.352L54.709,40.652C54.702,40.548 54.776,40.456 54.88,40.439C54.987,40.424 55.086,40.497 55.105,40.601L55.582,43.198C55.728,43.281 55.898,43.33 56.08,43.33C56.604,43.33 57.032,42.925 57.075,42.409L55.97,39.84C55.925,39.739 55.972,39.622 56.073,39.578C56.17,39.535 56.283,39.576 56.331,39.669L57.525,41.994C57.53,41.994 57.525,41.994 57.525,41.994C58.081,41.994 58.531,41.545 58.531,40.993C58.531,40.782 58.512,40.602 58.405,40.456L56.507,38.181L56.507,37.156C56.507,37.042 56.427,36.945 56.305,36.945L55.351,36.945L54.524,36.117C54.438,36.031 54.312,35.978 54.186,35.978C54.06,35.978 53.934,36.031 53.848,36.117L53.021,36.945L52.067,36.945C51.945,36.945 51.865,37.042 51.865,37.156L51.865,38.181L49.967,40.456C49.86,40.602 49.841,40.782 49.841,40.993C49.841,41.545 50.291,41.994 50.847,41.994C50.847,41.994 50.843,41.994 50.847,41.994L52.041,39.669C52.089,39.576 52.202,39.535 52.299,39.578C52.4,39.622 52.446,39.739 52.403,39.84L51.297,42.409C51.34,42.925 51.768,43.33 52.292,43.33C52.474,43.33 52.643,43.281 52.79,43.198L53.267,40.601C53.286,40.497 53.385,40.424 53.492,40.439C53.596,40.456 53.67,40.548 53.663,40.652L53.377,43.352C53.539,43.639 53.839,43.83 54.186,43.85Z" style="fill:rgb(0,174,239);fill-rule:nonzero;"/>
            <path d="M34.63,65.86C34.977,65.839 35.277,65.65 35.439,65.363L35.153,62.661C35.146,62.558 35.22,62.464 35.324,62.45C35.431,62.434 35.53,62.505 35.549,62.611L36.026,65.207C36.173,65.289 36.342,65.338 36.524,65.338C37.048,65.338 37.476,64.935 37.519,64.418L36.414,61.85C36.37,61.748 36.416,61.63 36.517,61.586C36.614,61.543 36.727,61.585 36.775,61.68L37.969,64.003C37.974,64.003 37.969,64.003 37.969,64.003C38.525,64.003 38.975,63.556 38.975,63.002C38.975,62.792 38.956,62.612 38.849,62.464L36.951,60.191L36.951,59.165C36.951,59.051 36.871,58.954 36.749,58.954L35.795,58.954L34.969,58.126C34.882,58.039 34.756,57.988 34.63,57.988C34.504,57.988 34.378,58.039 34.292,58.126L33.465,58.954L32.511,58.954C32.39,58.954 32.309,59.051 32.309,59.165L32.309,60.191L30.411,62.464C30.304,62.612 30.285,62.792 30.285,63.002C30.285,63.556 30.735,64.003 31.291,64.003C31.291,64.003 31.287,64.003 31.291,64.003L32.485,61.68C32.533,61.585 32.646,61.543 32.744,61.586C32.845,61.63 32.891,61.748 32.847,61.85L31.741,64.418C31.784,64.935 32.212,65.338 32.736,65.338C32.918,65.338 33.088,65.289 33.234,65.207L33.711,62.611C33.73,62.505 33.829,62.434 33.937,62.45C34.04,62.464 34.114,62.558 34.107,62.661L33.821,65.363C33.984,65.65 34.283,65.839 34.63,65.86Z" style="fill:rgb(0,174,239);fill-rule:nonzero;"/>
            <path d="M11.022,15.042C10.842,15.108 10.444,15.14 10.247,15.123C10.193,15.119 10.147,15.11 10.107,15.098L10.08,15.078L9.681,13.142C9.608,12.788 9.315,12.813 9.349,13.207L9.552,15.202C9.5,15.303 9.203,15.793 8.92,15.793C8.637,15.793 8.341,15.303 8.287,15.202L8.49,13.207C8.525,12.813 8.231,12.788 8.159,13.142L7.76,15.078L7.732,15.098C7.694,15.11 7.646,15.119 7.593,15.123C7.396,15.14 6.999,15.108 6.819,15.042C7.07,14.042 7.646,11.865 7.809,11.162C7.835,11.054 7.771,10.87 7.558,10.861C7.54,10.861 7.494,10.866 7.44,10.887C7.192,10.981 6.479,11.251 6.252,11.333L6.402,9.743C6.437,9.347 6.119,9.318 6.051,9.673C5.738,11.081 5.562,12.989 4.544,13.614C4.624,12.941 5.287,7.945 5.382,7.276C5.408,7.119 5.41,7.002 5.588,6.942C5.714,6.899 5.828,6.951 5.944,7.066C5.95,7.07 7.619,8.597 7.619,8.597C7.683,8.678 7.792,8.717 7.894,8.687C7.989,8.658 8.067,8.572 8.08,8.468L8.312,6.574C8.32,6.5 8.298,6.427 8.246,6.376C8.199,6.32 8.129,6.286 8.058,6.286L7.796,6.286L7.865,5.699C8.054,5.608 8.564,5.376 8.804,5.338C8.806,5.338 8.821,5.333 8.821,5.333C8.829,5.331 8.92,5.326 8.92,5.326C9.065,5.326 9.199,5.369 9.297,5.445C9.4,5.526 9.46,5.634 9.473,5.781L9.765,8.468C9.778,8.572 9.85,8.658 9.947,8.687C10.048,8.717 10.157,8.678 10.221,8.597C10.221,8.597 11.889,7.07 11.897,7.066C12.012,6.951 12.126,6.899 12.252,6.942C12.43,7.002 12.432,7.119 12.458,7.276C12.552,7.945 13.216,12.941 13.296,13.614C12.278,12.989 12.103,11.081 11.79,9.673C11.721,9.318 11.403,9.347 11.438,9.743L11.587,11.333C11.362,11.251 10.648,10.981 10.399,10.887C10.346,10.866 10.301,10.861 10.282,10.861C10.069,10.87 10.005,11.054 10.03,11.162C10.193,11.865 10.771,14.042 11.022,15.042Z" style="fill:rgb(220,221,222);fill-rule:nonzero;"/>
            <path d="M23.317,15.042C23.137,15.108 22.74,15.14 22.542,15.123C22.489,15.119 22.442,15.11 22.403,15.098L22.376,15.078L21.977,13.142C21.904,12.788 21.61,12.813 21.644,13.207L21.848,15.202C21.795,15.303 21.498,15.793 21.216,15.793C20.933,15.793 20.637,15.303 20.583,15.202L20.786,13.207C20.821,12.813 20.527,12.788 20.454,13.142L20.056,15.078L20.028,15.098C19.989,15.11 19.942,15.119 19.889,15.123C19.691,15.14 19.294,15.108 19.114,15.042C19.366,14.042 19.942,11.865 20.105,11.162C20.131,11.054 20.066,10.87 19.854,10.861C19.835,10.861 19.79,10.866 19.736,10.887C19.488,10.981 18.774,11.251 18.548,11.333L18.699,9.743C18.732,9.347 18.415,9.318 18.347,9.673C18.034,11.081 17.858,12.989 16.84,13.614C16.919,12.941 17.584,7.945 17.678,7.276C17.704,7.119 17.706,7.002 17.884,6.942C18.01,6.899 18.124,6.951 18.24,7.066C18.246,7.07 19.914,8.597 19.914,8.597C19.979,8.678 20.088,8.717 20.189,8.687C20.285,8.658 20.363,8.572 20.375,8.468L20.607,6.574C20.615,6.5 20.594,6.427 20.542,6.376C20.495,6.32 20.424,6.286 20.354,6.286L20.092,6.286L20.161,5.699C20.35,5.608 20.86,5.376 21.1,5.338C21.102,5.338 21.117,5.333 21.117,5.333C21.126,5.331 21.216,5.326 21.216,5.326C21.361,5.326 21.494,5.369 21.593,5.445C21.696,5.526 21.756,5.634 21.769,5.781L22.061,8.468C22.073,8.572 22.146,8.658 22.243,8.687C22.343,8.717 22.453,8.678 22.517,8.597C22.517,8.597 24.185,7.07 24.192,7.066C24.307,6.951 24.421,6.899 24.548,6.942C24.725,7.002 24.728,7.119 24.753,7.276C24.848,7.945 25.512,12.941 25.592,13.614C24.573,12.989 24.398,11.081 24.085,9.673C24.017,9.318 23.699,9.347 23.733,9.743L23.883,11.333C23.658,11.251 22.944,10.981 22.695,10.887C22.642,10.866 22.597,10.861 22.577,10.861C22.365,10.87 22.301,11.054 22.326,11.162C22.49,11.865 23.066,14.042 23.317,15.042Z" style="fill:rgb(220,221,222);fill-rule:nonzero;"/>
            <path d="M11.022,29.537C10.842,29.602 10.444,29.634 10.247,29.618C10.193,29.612 10.147,29.604 10.107,29.592L10.08,29.57L9.681,27.636C9.608,27.28 9.315,27.307 9.349,27.702L9.552,29.695C9.5,29.797 9.203,30.287 8.92,30.287C8.637,30.287 8.341,29.797 8.287,29.695L8.49,27.702C8.525,27.307 8.231,27.28 8.159,27.636L7.76,29.57L7.732,29.592C7.694,29.604 7.646,29.612 7.593,29.618C7.396,29.634 6.999,29.602 6.819,29.537C7.07,28.537 7.646,26.358 7.809,25.655C7.835,25.548 7.771,25.363 7.558,25.355C7.54,25.355 7.494,25.359 7.44,25.381C7.192,25.475 6.479,25.746 6.252,25.827L6.402,24.236C6.437,23.841 6.119,23.812 6.051,24.168C5.738,25.574 5.562,27.482 4.544,28.107C4.624,27.435 5.287,22.439 5.382,21.77C5.408,21.612 5.41,21.497 5.588,21.436C5.714,21.393 5.828,21.444 5.944,21.56C5.95,21.564 7.619,23.091 7.619,23.091C7.683,23.172 7.792,23.211 7.894,23.181C7.989,23.151 8.067,23.065 8.08,22.962L8.312,21.067C8.32,20.995 8.298,20.921 8.246,20.871C8.199,20.814 8.129,20.779 8.058,20.779L7.796,20.779L7.865,20.192C8.054,20.102 8.564,19.871 8.804,19.832C8.806,19.832 8.821,19.828 8.821,19.828C8.829,19.823 8.92,19.819 8.92,19.819C9.065,19.819 9.199,19.862 9.297,19.939C9.4,20.02 9.46,20.128 9.473,20.273L9.765,22.962C9.778,23.065 9.85,23.151 9.947,23.181C10.048,23.211 10.157,23.172 10.221,23.091C10.221,23.091 11.889,21.564 11.897,21.56C12.012,21.444 12.126,21.393 12.252,21.436C12.43,21.497 12.432,21.612 12.458,21.77C12.552,22.439 13.216,27.435 13.296,28.107C12.278,27.482 12.103,25.574 11.79,24.168C11.721,23.812 11.403,23.841 11.438,24.236L11.587,25.827C11.362,25.746 10.648,25.475 10.399,25.381C10.346,25.359 10.301,25.355 10.282,25.355C10.069,25.363 10.005,25.548 10.03,25.655C10.193,26.358 10.771,28.537 11.022,29.537Z" style="fill:rgb(220,221,222);fill-rule:nonzero;"/>
            <path d="M23.317,29.537C23.137,29.602 22.74,29.634 22.542,29.618C22.489,29.612 22.442,29.604 22.403,29.592L22.376,29.57L21.977,27.636C21.904,27.28 21.61,27.307 21.644,27.702L21.848,29.695C21.795,29.797 21.498,30.287 21.216,30.287C20.933,30.287 20.637,29.797 20.583,29.695L20.786,27.702C20.821,27.307 20.527,27.28 20.454,27.636L20.056,29.57L20.028,29.592C19.989,29.604 19.942,29.612 19.889,29.618C19.691,29.634 19.294,29.602 19.114,29.537C19.366,28.537 19.942,26.358 20.105,25.655C20.131,25.548 20.066,25.363 19.854,25.355C19.835,25.355 19.79,25.359 19.736,25.381C19.488,25.475 18.774,25.746 18.548,25.827L18.699,24.236C18.732,23.841 18.415,23.812 18.347,24.168C18.034,25.574 17.858,27.482 16.84,28.107C16.919,27.435 17.584,22.439 17.678,21.77C17.704,21.612 17.706,21.497 17.884,21.436C18.01,21.393 18.124,21.444 18.24,21.56C18.246,21.564 19.914,23.091 19.914,23.091C19.979,23.172 20.088,23.211 20.189,23.181C20.285,23.151 20.363,23.065 20.375,22.962L20.607,21.067C20.615,20.995 20.594,20.921 20.542,20.871C20.495,20.814 20.424,20.779 20.354,20.779L20.092,20.779L20.161,20.192C20.35,20.102 20.86,19.871 21.1,19.832C21.102,19.832 21.117,19.828 21.117,19.828C21.126,19.823 21.216,19.819 21.216,19.819C21.361,19.819 21.494,19.862 21.593,19.939C21.696,20.02 21.756,20.128 21.769,20.273L22.061,22.962C22.073,23.065 22.146,23.151 22.243,23.181C22.343,23.211 22.453,23.172 22.517,23.091C22.517,23.091 24.185,21.564 24.192,21.56C24.307,21.444 24.421,21.393 24.548,21.436C24.725,21.497 24.728,21.612 24.753,21.77C24.848,22.439 25.512,27.435 25.592,28.107C24.573,27.482 24.398,25.574 24.085,24.168C24.017,23.812 23.699,23.841 23.733,24.236L23.883,25.827C23.658,25.746 22.944,25.475 22.695,25.381C22.642,25.359 22.597,25.355 22.577,25.355C22.365,25.363 22.301,25.548 22.326,25.655C22.49,26.358 23.066,28.537 23.317,29.537Z" style="fill:rgb(220,221,222);fill-rule:nonzero;"/>
            <path d="M50.137,15.042C49.958,15.108 49.561,15.14 49.363,15.123C49.31,15.119 49.262,15.11 49.224,15.098L49.196,15.078L48.797,13.142C48.724,12.788 48.431,12.813 48.465,13.207L48.669,15.202C48.615,15.303 48.319,15.793 48.036,15.793C47.753,15.793 47.457,15.303 47.403,15.202L47.607,13.207C47.641,12.813 47.347,12.788 47.275,13.142L46.876,15.078L46.848,15.098C46.81,15.11 46.763,15.119 46.709,15.123C46.511,15.14 46.114,15.108 45.935,15.042C46.186,14.042 46.763,11.865 46.925,11.162C46.951,11.054 46.886,10.87 46.675,10.861C46.655,10.861 46.61,10.866 46.557,10.887C46.308,10.981 45.594,11.251 45.369,11.333L45.519,9.743C45.552,9.347 45.235,9.318 45.167,9.673C44.854,11.081 44.679,12.989 43.66,13.614C43.739,12.941 44.404,7.945 44.498,7.276C44.524,7.119 44.526,7.002 44.704,6.942C44.831,6.899 44.944,6.951 45.06,7.066C45.067,7.07 46.735,8.597 46.735,8.597C46.799,8.678 46.908,8.717 47.009,8.687C47.106,8.658 47.183,8.572 47.196,8.468L47.427,6.574C47.436,6.5 47.414,6.427 47.363,6.376C47.315,6.32 47.245,6.286 47.174,6.286L46.913,6.286L46.981,5.699C47.17,5.608 47.68,5.376 47.92,5.338C47.922,5.338 47.938,5.333 47.938,5.333C47.946,5.331 48.036,5.326 48.036,5.326C48.182,5.326 48.315,5.369 48.414,5.445C48.516,5.526 48.576,5.634 48.589,5.781L48.881,8.468C48.894,8.572 48.966,8.658 49.063,8.687C49.164,8.717 49.273,8.678 49.338,8.597C49.338,8.597 51.005,7.07 51.012,7.066C51.128,6.951 51.241,6.899 51.368,6.942C51.546,7.002 51.548,7.119 51.574,7.276C51.668,7.945 52.333,12.941 52.412,13.614C51.394,12.989 51.218,11.081 50.905,9.673C50.837,9.318 50.52,9.347 50.553,9.743L50.703,11.333C50.478,11.251 49.764,10.981 49.516,10.887C49.462,10.866 49.417,10.861 49.398,10.861C49.186,10.87 49.121,11.054 49.147,11.162C49.31,11.865 49.886,14.042 50.137,15.042Z" style="fill:rgb(220,221,222);fill-rule:nonzero;"/>
            <path d="M62.433,15.042C62.253,15.108 61.856,15.14 61.658,15.123C61.605,15.119 61.558,15.11 61.519,15.098L61.491,15.078L61.092,13.142C61.02,12.788 60.727,12.813 60.76,13.207L60.963,15.202C60.911,15.303 60.614,15.793 60.332,15.793C60.048,15.793 59.752,15.303 59.698,15.202L59.901,13.207C59.937,12.813 59.643,12.788 59.57,13.142L59.171,15.078L59.144,15.098C59.106,15.11 59.058,15.119 59.004,15.123C58.807,15.14 58.409,15.108 58.231,15.042C58.481,14.042 59.058,11.865 59.22,11.162C59.247,11.054 59.182,10.87 58.969,10.861C58.95,10.861 58.905,10.866 58.852,10.887C58.604,10.981 57.89,11.251 57.664,11.333L57.814,9.743C57.847,9.347 57.53,9.318 57.462,9.673C57.149,11.081 56.974,12.989 55.956,13.614C56.034,12.941 56.698,7.945 56.793,7.276C56.819,7.119 56.821,7.002 57,6.942C57.126,6.899 57.239,6.951 57.356,7.066C57.361,7.07 59.03,8.597 59.03,8.597C59.094,8.678 59.204,8.717 59.304,8.687C59.4,8.658 59.479,8.572 59.491,8.468L59.722,6.574C59.731,6.5 59.71,6.427 59.658,6.376C59.61,6.32 59.541,6.286 59.469,6.286L59.208,6.286L59.276,5.699C59.465,5.608 59.976,5.376 60.215,5.338C60.217,5.338 60.232,5.333 60.232,5.333C60.24,5.331 60.332,5.326 60.332,5.326C60.477,5.326 60.61,5.369 60.709,5.445C60.812,5.526 60.872,5.634 60.884,5.781L61.176,8.468C61.189,8.572 61.261,8.658 61.358,8.687C61.46,8.717 61.568,8.678 61.632,8.597C61.632,8.597 63.3,7.07 63.308,7.066C63.423,6.951 63.537,6.899 63.664,6.942C63.841,7.002 63.843,7.119 63.869,7.276C63.963,7.945 64.628,12.941 64.708,13.614C63.689,12.989 63.513,11.081 63.2,9.673C63.132,9.318 62.814,9.347 62.849,9.743L62.999,11.333C62.773,11.251 62.06,10.981 61.811,10.887C61.757,10.866 61.712,10.861 61.693,10.861C61.481,10.87 61.417,11.054 61.441,11.162C61.605,11.865 62.182,14.042 62.433,15.042Z" style="fill:rgb(220,221,222);fill-rule:nonzero;"/>
            <path d="M50.137,29.537C49.958,29.602 49.561,29.634 49.363,29.618C49.31,29.612 49.262,29.604 49.224,29.592L49.196,29.57L48.797,27.636C48.724,27.28 48.431,27.307 48.465,27.702L48.669,29.695C48.615,29.797 48.319,30.287 48.036,30.287C47.753,30.287 47.457,29.797 47.403,29.695L47.607,27.702C47.641,27.307 47.347,27.28 47.275,27.636L46.876,29.57L46.848,29.592C46.81,29.604 46.763,29.612 46.709,29.618C46.511,29.634 46.114,29.602 45.935,29.537C46.186,28.537 46.763,26.358 46.925,25.655C46.951,25.548 46.886,25.363 46.675,25.355C46.655,25.355 46.61,25.359 46.557,25.381C46.308,25.475 45.594,25.746 45.369,25.827L45.519,24.236C45.552,23.841 45.235,23.812 45.167,24.168C44.854,25.574 44.679,27.482 43.66,28.107C43.739,27.435 44.404,22.439 44.498,21.77C44.524,21.612 44.526,21.497 44.704,21.436C44.831,21.393 44.944,21.444 45.06,21.56C45.067,21.564 46.735,23.091 46.735,23.091C46.799,23.172 46.908,23.211 47.009,23.181C47.106,23.151 47.183,23.065 47.196,22.962L47.427,21.067C47.436,20.995 47.414,20.921 47.363,20.871C47.315,20.814 47.245,20.779 47.174,20.779L46.913,20.779L46.981,20.192C47.17,20.102 47.68,19.871 47.92,19.832C47.922,19.832 47.938,19.828 47.938,19.828C47.946,19.823 48.036,19.819 48.036,19.819C48.182,19.819 48.315,19.862 48.414,19.939C48.516,20.02 48.576,20.128 48.589,20.273L48.881,22.962C48.894,23.065 48.966,23.151 49.063,23.181C49.164,23.211 49.273,23.172 49.338,23.091C49.338,23.091 51.005,21.564 51.012,21.56C51.128,21.444 51.241,21.393 51.368,21.436C51.546,21.497 51.548,21.612 51.574,21.77C51.668,22.439 52.333,27.435 52.412,28.107C51.394,27.482 51.218,25.574 50.905,24.168C50.837,23.812 50.52,23.841 50.553,24.236L50.703,25.827C50.478,25.746 49.764,25.475 49.516,25.381C49.462,25.359 49.417,25.355 49.398,25.355C49.186,25.363 49.121,25.548 49.147,25.655C49.31,26.358 49.886,28.537 50.137,29.537Z" style="fill:rgb(220,221,222);fill-rule:nonzero;"/>
            <path d="M62.433,29.537C62.253,29.602 61.856,29.634 61.658,29.618C61.605,29.612 61.558,29.604 61.519,29.592L61.491,29.57L61.092,27.636C61.02,27.28 60.727,27.307 60.76,27.702L60.963,29.695C60.911,29.797 60.614,30.287 60.332,30.287C60.048,30.287 59.752,29.797 59.698,29.695L59.901,27.702C59.937,27.307 59.643,27.28 59.57,27.636L59.171,29.57L59.144,29.592C59.106,29.604 59.058,29.612 59.004,29.618C58.807,29.634 58.409,29.602 58.231,29.537C58.481,28.537 59.058,26.358 59.22,25.655C59.247,25.548 59.182,25.363 58.969,25.355C58.95,25.355 58.905,25.359 58.852,25.381C58.604,25.475 57.89,25.746 57.664,25.827L57.814,24.236C57.847,23.841 57.53,23.812 57.462,24.168C57.149,25.574 56.974,27.482 55.956,28.107C56.034,27.435 56.698,22.439 56.793,21.77C56.819,21.612 56.821,21.497 57,21.436C57.126,21.393 57.239,21.444 57.356,21.56C57.361,21.564 59.03,23.091 59.03,23.091C59.094,23.172 59.204,23.211 59.304,23.181C59.4,23.151 59.479,23.065 59.491,22.962L59.722,21.067C59.731,20.995 59.71,20.921 59.658,20.871C59.61,20.814 59.541,20.779 59.469,20.779L59.208,20.779L59.276,20.192C59.465,20.102 59.976,19.871 60.215,19.832C60.217,19.832 60.232,19.828 60.232,19.828C60.24,19.823 60.332,19.819 60.332,19.819C60.477,19.819 60.61,19.862 60.709,19.939C60.812,20.02 60.872,20.128 60.884,20.273L61.176,22.962C61.189,23.065 61.261,23.151 61.358,23.181C61.46,23.211 61.568,23.172 61.632,23.091C61.632,23.091 63.3,21.564 63.308,21.56C63.423,21.444 63.537,21.393 63.664,21.436C63.841,21.497 63.843,21.612 63.869,21.77C63.963,22.439 64.628,27.435 64.708,28.107C63.689,27.482 63.513,25.574 63.2,24.168C63.132,23.812 62.814,23.841 62.849,24.236L62.999,25.827C62.773,25.746 62.06,25.475 61.811,25.381C61.757,25.359 61.712,25.355 61.693,25.355C61.481,25.363 61.417,25.548 61.441,25.655C61.605,26.358 62.182,28.537 62.433,29.537Z" style="fill:rgb(220,221,222);fill-rule:nonzero;"/>
            <path d="M11.022,59.062C10.842,59.128 10.444,59.161 10.247,59.143C10.193,59.138 10.147,59.13 10.107,59.119L10.08,59.096L9.681,57.163C9.608,56.807 9.315,56.834 9.349,57.226L9.552,59.221C9.5,59.324 9.203,59.814 8.92,59.814C8.637,59.814 8.341,59.324 8.287,59.221L8.49,57.226C8.525,56.834 8.231,56.807 8.159,57.163L7.76,59.096L7.732,59.119C7.694,59.13 7.646,59.138 7.593,59.143C7.396,59.161 6.999,59.128 6.819,59.062C7.07,58.062 7.646,55.885 7.809,55.181C7.835,55.075 7.771,54.889 7.558,54.881C7.54,54.881 7.494,54.885 7.44,54.908C7.192,55.002 6.479,55.272 6.252,55.353L6.402,53.762C6.437,53.368 6.119,53.338 6.051,53.694C5.738,55.1 5.562,57.008 4.544,57.633C4.624,56.961 5.287,51.965 5.382,51.296C5.408,51.138 5.41,51.023 5.588,50.961C5.714,50.919 5.828,50.97 5.944,51.086C5.95,51.09 7.619,52.618 7.619,52.618C7.683,52.699 7.792,52.738 7.894,52.708C7.989,52.677 8.067,52.591 8.08,52.489L8.312,50.593C8.32,50.52 8.298,50.448 8.246,50.397C8.199,50.34 8.129,50.305 8.058,50.305L7.796,50.305L7.865,49.718C8.054,49.628 8.564,49.397 8.804,49.359C8.806,49.359 8.821,49.353 8.821,49.353C8.829,49.349 8.92,49.345 8.92,49.345C9.065,49.345 9.199,49.388 9.297,49.465C9.4,49.546 9.46,49.655 9.473,49.8L9.765,52.489C9.778,52.591 9.85,52.677 9.947,52.708C10.048,52.738 10.157,52.699 10.221,52.618C10.221,52.618 11.889,51.09 11.897,51.086C12.012,50.97 12.126,50.919 12.252,50.961C12.43,51.023 12.432,51.138 12.458,51.296C12.552,51.965 13.216,56.961 13.296,57.633C12.278,57.008 12.103,55.1 11.79,53.694C11.721,53.338 11.403,53.368 11.438,53.762L11.587,55.353C11.362,55.272 10.648,55.002 10.399,54.908C10.346,54.885 10.301,54.881 10.282,54.881C10.069,54.889 10.005,55.075 10.03,55.181C10.193,55.885 10.771,58.062 11.022,59.062Z" style="fill:rgb(220,221,222);fill-rule:nonzero;"/>
            <path d="M23.317,59.062C23.137,59.128 22.74,59.161 22.542,59.143C22.489,59.138 22.442,59.13 22.403,59.119L22.376,59.096L21.977,57.163C21.904,56.807 21.61,56.834 21.644,57.226L21.848,59.221C21.795,59.324 21.498,59.814 21.216,59.814C20.933,59.814 20.637,59.324 20.583,59.221L20.786,57.226C20.821,56.834 20.527,56.807 20.454,57.163L20.056,59.096L20.028,59.119C19.989,59.13 19.942,59.138 19.889,59.143C19.691,59.161 19.294,59.128 19.114,59.062C19.366,58.062 19.942,55.885 20.105,55.181C20.131,55.075 20.066,54.889 19.854,54.881C19.835,54.881 19.79,54.885 19.736,54.908C19.488,55.002 18.774,55.272 18.548,55.353L18.699,53.762C18.732,53.368 18.415,53.338 18.347,53.694C18.034,55.1 17.858,57.008 16.84,57.633C16.919,56.961 17.584,51.965 17.678,51.296C17.704,51.138 17.706,51.023 17.884,50.961C18.01,50.919 18.124,50.97 18.24,51.086C18.246,51.09 19.914,52.618 19.914,52.618C19.979,52.699 20.088,52.738 20.189,52.708C20.285,52.677 20.363,52.591 20.375,52.489L20.607,50.593C20.615,50.52 20.594,50.448 20.542,50.397C20.495,50.34 20.424,50.305 20.354,50.305L20.092,50.305L20.161,49.718C20.35,49.628 20.86,49.397 21.1,49.359C21.102,49.359 21.117,49.353 21.117,49.353C21.126,49.349 21.216,49.345 21.216,49.345C21.361,49.345 21.494,49.388 21.593,49.465C21.696,49.546 21.756,49.655 21.769,49.8L22.061,52.489C22.073,52.591 22.146,52.677 22.243,52.708C22.343,52.738 22.453,52.699 22.517,52.618C22.517,52.618 24.185,51.09 24.192,51.086C24.307,50.97 24.421,50.919 24.548,50.961C24.725,51.023 24.728,51.138 24.753,51.296C24.848,51.965 25.512,56.961 25.592,57.633C24.573,57.008 24.398,55.1 24.085,53.694C24.017,53.338 23.699,53.368 23.733,53.762L23.883,55.353C23.658,55.272 22.944,55.002 22.695,54.908C22.642,54.885 22.597,54.881 22.577,54.881C22.365,54.889 22.301,55.075 22.326,55.181C22.49,55.885 23.066,58.062 23.317,59.062Z" style="fill:rgb(220,221,222);fill-rule:nonzero;"/>
            <path d="M11.022,73.556C10.842,73.622 10.444,73.654 10.247,73.637C10.193,73.632 10.147,73.624 10.107,73.612L10.08,73.59L9.681,71.656C9.608,71.3 9.315,71.328 9.349,71.72L9.552,73.715C9.5,73.817 9.203,74.307 8.92,74.307C8.637,74.307 8.341,73.817 8.287,73.715L8.49,71.72C8.525,71.328 8.231,71.3 8.159,71.656L7.76,73.59L7.732,73.612C7.694,73.624 7.646,73.632 7.593,73.637C7.396,73.654 6.999,73.622 6.819,73.556C7.07,72.556 7.646,70.379 7.809,69.675C7.835,69.568 7.771,69.383 7.558,69.375C7.54,69.375 7.494,69.379 7.44,69.401C7.192,69.496 6.479,69.765 6.252,69.846L6.402,68.256C6.437,67.861 6.119,67.832 6.051,68.187C5.738,69.594 5.562,71.502 4.544,72.127C4.624,71.456 5.287,66.46 5.382,65.79C5.408,65.632 5.41,65.516 5.588,65.456C5.714,65.414 5.828,65.464 5.944,65.581C5.95,65.585 7.619,67.111 7.619,67.111C7.683,67.192 7.792,67.231 7.894,67.202C7.989,67.171 8.067,67.085 8.08,66.982L8.312,65.087C8.32,65.014 8.298,64.941 8.246,64.89C8.199,64.835 8.129,64.799 8.058,64.799L7.796,64.799L7.865,64.212C8.054,64.123 8.564,63.89 8.804,63.852C8.806,63.852 8.821,63.847 8.821,63.847C8.829,63.843 8.92,63.839 8.92,63.839C9.065,63.839 9.199,63.882 9.297,63.96C9.4,64.041 9.46,64.148 9.473,64.294L9.765,66.982C9.778,67.085 9.85,67.171 9.947,67.202C10.048,67.231 10.157,67.192 10.221,67.111C10.221,67.111 11.889,65.585 11.897,65.581C12.012,65.464 12.126,65.414 12.252,65.456C12.43,65.516 12.432,65.632 12.458,65.79C12.552,66.46 13.216,71.456 13.296,72.127C12.278,71.502 12.103,69.594 11.79,68.187C11.721,67.832 11.403,67.861 11.438,68.256L11.587,69.846C11.362,69.765 10.648,69.496 10.399,69.401C10.346,69.379 10.301,69.375 10.282,69.375C10.069,69.383 10.005,69.568 10.03,69.675C10.193,70.379 10.771,72.556 11.022,73.556Z" style="fill:rgb(220,221,222);fill-rule:nonzero;"/>
            <path d="M23.317,73.556C23.137,73.622 22.74,73.654 22.542,73.637C22.489,73.632 22.442,73.624 22.403,73.612L22.376,73.59L21.977,71.656C21.904,71.3 21.61,71.328 21.644,71.72L21.848,73.715C21.795,73.817 21.498,74.307 21.216,74.307C20.933,74.307 20.637,73.817 20.583,73.715L20.786,71.72C20.821,71.328 20.527,71.3 20.454,71.656L20.056,73.59L20.028,73.612C19.989,73.624 19.942,73.632 19.889,73.637C19.691,73.654 19.294,73.622 19.114,73.556C19.366,72.556 19.942,70.379 20.105,69.675C20.131,69.568 20.066,69.383 19.854,69.375C19.835,69.375 19.79,69.379 19.736,69.401C19.488,69.496 18.774,69.765 18.548,69.846L18.699,68.256C18.732,67.861 18.415,67.832 18.347,68.187C18.034,69.594 17.858,71.502 16.84,72.127C16.919,71.456 17.584,66.46 17.678,65.79C17.704,65.632 17.706,65.516 17.884,65.456C18.01,65.414 18.124,65.464 18.24,65.581C18.246,65.585 19.914,67.111 19.914,67.111C19.979,67.192 20.088,67.231 20.189,67.202C20.285,67.171 20.363,67.085 20.375,66.982L20.607,65.087C20.615,65.014 20.594,64.941 20.542,64.89C20.495,64.835 20.424,64.799 20.354,64.799L20.092,64.799L20.161,64.212C20.35,64.123 20.86,63.89 21.1,63.852C21.102,63.852 21.117,63.847 21.117,63.847C21.126,63.843 21.216,63.839 21.216,63.839C21.361,63.839 21.494,63.882 21.593,63.96C21.696,64.041 21.756,64.148 21.769,64.294L22.061,66.982C22.073,67.085 22.146,67.171 22.243,67.202C22.343,67.231 22.453,67.192 22.517,67.111C22.517,67.111 24.185,65.585 24.192,65.581C24.307,65.464 24.421,65.414 24.548,65.456C24.725,65.516 24.728,65.632 24.753,65.79C24.848,66.46 25.512,71.456 25.592,72.127C24.573,71.502 24.398,69.594 24.085,68.187C24.017,67.832 23.699,67.861 23.733,68.256L23.883,69.846C23.658,69.765 22.944,69.496 22.695,69.401C22.642,69.379 22.597,69.375 22.577,69.375C22.365,69.383 22.301,69.568 22.326,69.675C22.49,70.379 23.066,72.556 23.317,73.556Z" style="fill:rgb(220,221,222);fill-rule:nonzero;"/>
            <path d="M50.137,59.062C49.958,59.128 49.561,59.161 49.363,59.143C49.31,59.138 49.262,59.13 49.224,59.119L49.196,59.096L48.797,57.163C48.724,56.807 48.431,56.834 48.465,57.226L48.669,59.221C48.615,59.324 48.319,59.814 48.036,59.814C47.753,59.814 47.457,59.324 47.403,59.221L47.607,57.226C47.641,56.834 47.347,56.807 47.275,57.163L46.876,59.096L46.848,59.119C46.81,59.13 46.763,59.138 46.709,59.143C46.511,59.161 46.114,59.128 45.935,59.062C46.186,58.062 46.763,55.885 46.925,55.181C46.951,55.075 46.886,54.889 46.675,54.881C46.655,54.881 46.61,54.885 46.557,54.908C46.308,55.002 45.594,55.272 45.369,55.353L45.519,53.762C45.552,53.368 45.235,53.338 45.167,53.694C44.854,55.1 44.679,57.008 43.66,57.633C43.739,56.961 44.404,51.965 44.498,51.296C44.524,51.138 44.526,51.023 44.704,50.961C44.831,50.919 44.944,50.97 45.06,51.086C45.067,51.09 46.735,52.618 46.735,52.618C46.799,52.699 46.908,52.738 47.009,52.708C47.106,52.677 47.183,52.591 47.196,52.489L47.427,50.593C47.436,50.52 47.414,50.448 47.363,50.397C47.315,50.34 47.245,50.305 47.174,50.305L46.913,50.305L46.981,49.718C47.17,49.628 47.68,49.397 47.92,49.359C47.922,49.359 47.938,49.353 47.938,49.353C47.946,49.349 48.036,49.345 48.036,49.345C48.182,49.345 48.315,49.388 48.414,49.465C48.516,49.546 48.576,49.655 48.589,49.8L48.881,52.489C48.894,52.591 48.966,52.677 49.063,52.708C49.164,52.738 49.273,52.699 49.338,52.618C49.338,52.618 51.005,51.09 51.012,51.086C51.128,50.97 51.241,50.919 51.368,50.961C51.546,51.023 51.548,51.138 51.574,51.296C51.668,51.965 52.333,56.961 52.412,57.633C51.394,57.008 51.218,55.1 50.905,53.694C50.837,53.338 50.52,53.368 50.553,53.762L50.703,55.353C50.478,55.272 49.764,55.002 49.516,54.908C49.462,54.885 49.417,54.881 49.398,54.881C49.186,54.889 49.121,55.075 49.147,55.181C49.31,55.885 49.886,58.062 50.137,59.062Z" style="fill:rgb(220,221,222);fill-rule:nonzero;"/>
            <path d="M62.433,59.062C62.253,59.128 61.856,59.161 61.658,59.143C61.605,59.138 61.558,59.13 61.519,59.119L61.491,59.096L61.092,57.163C61.02,56.807 60.727,56.834 60.76,57.226L60.963,59.221C60.911,59.324 60.614,59.814 60.332,59.814C60.048,59.814 59.752,59.324 59.698,59.221L59.901,57.226C59.937,56.834 59.643,56.807 59.57,57.163L59.171,59.096L59.144,59.119C59.106,59.13 59.058,59.138 59.004,59.143C58.807,59.161 58.409,59.128 58.231,59.062C58.481,58.062 59.058,55.885 59.22,55.181C59.247,55.075 59.182,54.889 58.969,54.881C58.95,54.881 58.905,54.885 58.852,54.908C58.604,55.002 57.89,55.272 57.664,55.353L57.814,53.762C57.847,53.368 57.53,53.338 57.462,53.694C57.149,55.1 56.974,57.008 55.956,57.633C56.034,56.961 56.698,51.965 56.793,51.296C56.819,51.138 56.821,51.023 57,50.961C57.126,50.919 57.239,50.97 57.356,51.086C57.361,51.09 59.03,52.618 59.03,52.618C59.094,52.699 59.204,52.738 59.304,52.708C59.4,52.677 59.479,52.591 59.491,52.489L59.722,50.593C59.731,50.52 59.71,50.448 59.658,50.397C59.61,50.34 59.541,50.305 59.469,50.305L59.208,50.305L59.276,49.718C59.465,49.628 59.976,49.397 60.215,49.359C60.217,49.359 60.232,49.353 60.232,49.353C60.24,49.349 60.332,49.345 60.332,49.345C60.477,49.345 60.61,49.388 60.709,49.465C60.812,49.546 60.872,49.655 60.884,49.8L61.176,52.489C61.189,52.591 61.261,52.677 61.358,52.708C61.46,52.738 61.568,52.699 61.632,52.618C61.632,52.618 63.3,51.09 63.308,51.086C63.423,50.97 63.537,50.919 63.664,50.961C63.841,51.023 63.843,51.138 63.869,51.296C63.963,51.965 64.628,56.961 64.708,57.633C63.689,57.008 63.513,55.1 63.2,53.694C63.132,53.338 62.814,53.368 62.849,53.762L62.999,55.353C62.773,55.272 62.06,55.002 61.811,54.908C61.757,54.885 61.712,54.881 61.693,54.881C61.481,54.889 61.417,55.075 61.441,55.181C61.605,55.885 62.182,58.062 62.433,59.062Z" style="fill:rgb(220,221,222);fill-rule:nonzero;"/>
            <path d="M50.137,73.556C49.958,73.622 49.561,73.654 49.363,73.637C49.31,73.632 49.262,73.624 49.224,73.612L49.196,73.59L48.797,71.656C48.724,71.3 48.431,71.328 48.465,71.72L48.669,73.715C48.615,73.817 48.319,74.307 48.036,74.307C47.753,74.307 47.457,73.817 47.403,73.715L47.607,71.72C47.641,71.328 47.347,71.3 47.275,71.656L46.876,73.59L46.848,73.612C46.81,73.624 46.763,73.632 46.709,73.637C46.511,73.654 46.114,73.622 45.935,73.556C46.186,72.556 46.763,70.379 46.925,69.675C46.951,69.568 46.886,69.383 46.675,69.375C46.655,69.375 46.61,69.379 46.557,69.401C46.308,69.496 45.594,69.765 45.369,69.846L45.519,68.256C45.552,67.861 45.235,67.832 45.167,68.187C44.854,69.594 44.679,71.502 43.66,72.127C43.739,71.456 44.404,66.46 44.498,65.79C44.524,65.632 44.526,65.516 44.704,65.456C44.831,65.414 44.944,65.464 45.06,65.581C45.067,65.585 46.735,67.111 46.735,67.111C46.799,67.192 46.908,67.231 47.009,67.202C47.106,67.171 47.183,67.085 47.196,66.982L47.427,65.087C47.436,65.014 47.414,64.941 47.363,64.89C47.315,64.835 47.245,64.799 47.174,64.799L46.913,64.799L46.981,64.212C47.17,64.123 47.68,63.89 47.92,63.852C47.922,63.852 47.938,63.847 47.938,63.847C47.946,63.843 48.036,63.839 48.036,63.839C48.182,63.839 48.315,63.882 48.414,63.96C48.516,64.041 48.576,64.148 48.589,64.294L48.881,66.982C48.894,67.085 48.966,67.171 49.063,67.202C49.164,67.231 49.273,67.192 49.338,67.111C49.338,67.111 51.005,65.585 51.012,65.581C51.128,65.464 51.241,65.414 51.368,65.456C51.546,65.516 51.548,65.632 51.574,65.79C51.668,66.46 52.333,71.456 52.412,72.127C51.394,71.502 51.218,69.594 50.905,68.187C50.837,67.832 50.52,67.861 50.553,68.256L50.703,69.846C50.478,69.765 49.764,69.496 49.516,69.401C49.462,69.379 49.417,69.375 49.398,69.375C49.186,69.383 49.121,69.568 49.147,69.675C49.31,70.379 49.886,72.556 50.137,73.556Z" style="fill:rgb(220,221,222);fill-rule:nonzero;"/>
            <path d="M62.433,73.556C62.253,73.622 61.856,73.654 61.658,73.637C61.605,73.632 61.558,73.624 61.519,73.612L61.491,73.59L61.092,71.656C61.02,71.3 60.727,71.328 60.76,71.72L60.963,73.715C60.911,73.817 60.614,74.307 60.332,74.307C60.048,74.307 59.752,73.817 59.698,73.715L59.901,71.72C59.937,71.328 59.643,71.3 59.57,71.656L59.171,73.59L59.144,73.612C59.106,73.624 59.058,73.632 59.004,73.637C58.807,73.654 58.409,73.622 58.231,73.556C58.481,72.556 59.058,70.379 59.22,69.675C59.247,69.568 59.182,69.383 58.969,69.375C58.95,69.375 58.905,69.379 58.852,69.401C58.604,69.496 57.89,69.765 57.664,69.846L57.814,68.256C57.847,67.861 57.53,67.832 57.462,68.187C57.149,69.594 56.974,71.502 55.956,72.127C56.034,71.456 56.698,66.46 56.793,65.79C56.819,65.632 56.821,65.516 57,65.456C57.126,65.414 57.239,65.464 57.356,65.581C57.361,65.585 59.03,67.111 59.03,67.111C59.094,67.192 59.204,67.231 59.304,67.202C59.4,67.171 59.479,67.085 59.491,66.982L59.722,65.087C59.731,65.014 59.71,64.941 59.658,64.89C59.61,64.835 59.541,64.799 59.469,64.799L59.208,64.799L59.276,64.212C59.465,64.123 59.976,63.89 60.215,63.852C60.217,63.852 60.232,63.847 60.232,63.847C60.24,63.843 60.332,63.839 60.332,63.839C60.477,63.839 60.61,63.882 60.709,63.96C60.812,64.041 60.872,64.148 60.884,64.294L61.176,66.982C61.189,67.085 61.261,67.171 61.358,67.202C61.46,67.231 61.568,67.192 61.632,67.111C61.632,67.111 63.3,65.585 63.308,65.581C63.423,65.464 63.537,65.414 63.664,65.456C63.841,65.516 63.843,65.632 63.869,65.79C63.963,66.46 64.628,71.456 64.708,72.127C63.689,71.502 63.513,69.594 63.2,68.187C63.132,67.832 62.814,67.861 62.849,68.256L62.999,69.846C62.773,69.765 62.06,69.496 61.811,69.401C61.757,69.379 61.712,69.375 61.693,69.375C61.481,69.383 61.417,69.568 61.441,69.675C61.605,70.379 62.182,72.556 62.433,73.556Z" style="fill:rgb(220,221,222);fill-rule:nonzero;"/>
        </g>
    </g>
</svg>
